<svg xmlns="http://www.w3.org/2000/svg" width="1080" height="1080" viewBox="0 0 1080 1080" fill="none">
<path d="M540 0C440.6 0 360 80.6 360 180C260.6 180 180 260.6 180 360C80.6 360 0 440.6 0 540C0 639.4 80.6 720 180 720C90 765 0 810 0 810C0 810 0 855 0 900C270 900 270 1080 540 1080C810 1080 810 900 1080 900C1080 855 1080 810 1080 810C1080 810 990 765 900 720C999.4 720 1080 639.4 1080 540C1080 440.6 999.4 360 900 360C900 260.6 819.4 180 720 180C720 80.6 639.4 0 540 0Z" fill="url(#emotion-gradient)" />
<defs><linearGradient id="emotion-gradient" x1="0.5" y1="1" x2="0.5" y2="0"><stop stop-color="#FFB218" /><stop offset="0.510417" stop-color="#FFD04B" /><stop offset="1" stop-color="#F8E46D" /></linearGradient></defs></svg>