<svg xmlns="http://www.w3.org/2000/svg" width="1080" height="1080" viewBox="0 0 1080 1080" fill="none">
<path d="M541 180L361 0H181L0 180V360H181L0 540C0 630 0 990 0 1080C45 1080 90 1080 180 1080C180 881.02 341.02 720.01 540 720C738.98 720 900 881.02 900 1080C990 1080 1035 1080 1080 1080C1080 990 1080 630 1080 540L901 360H1080V180L901 0H721L541 180Z" fill="url(#emotion-gradient)" />
<defs><linearGradient id="emotion-gradient" x1="0.5" y1="1" x2="0.5" y2="0"><stop stop-color="#40C786" /><stop offset="0.5" stop-color="#4CE39B" /><stop offset="1" stop-color="#8BEFA2" /></linearGradient></defs></svg>